<svg width="46" height="16" viewBox="0 0 46 16" fill="none" xmlns="http://www.w3.org/2000/svg">
<path fill-rule="evenodd" clip-rule="evenodd" d="M1.86771 6.03628C2.36663 4.96707 3.04744 4.22386 3.76861 3.50494C4.48977 2.78601 5.42943 2.01543 6.42799 1.43851C7.89688 0.589859 9.1209 1.02487 10.1332 1.56765C11.1455 2.11046 12.0031 2.76015 12.7243 3.4791C13.4454 4.19804 14.2282 5.26341 14.5107 6.03205C15.0302 7.44581 15.1676 8.38481 14.4603 9.70418C13.9654 10.6274 13.3936 11.2842 12.6724 12.0031C12.5577 12.1174 12.4416 12.2354 12.3236 12.3553C11.6995 12.9895 11.0217 13.6782 10.2175 14.1695C9.09163 14.8573 7.64717 14.6562 6.29842 14.0178C5.28737 13.5393 4.76538 13.0578 4.04421 12.3389C3.32303 11.6199 2.40039 10.5889 1.97136 9.70418C1.34611 8.41493 1.24034 7.3807 1.86771 6.03628ZM2.51856 6.12629C2.95379 5.19361 3.51624 4.44948 4.14533 3.82234C4.77442 3.1952 5.57505 2.51971 6.49659 2.11556C7.40269 1.71815 9.00203 1.84823 9.72874 2.22822C10.4554 2.6082 11.3599 3.26846 11.989 3.89561C12.6181 4.52275 13.421 5.40505 13.6674 6.07555C14.1205 7.30881 14.371 8.08042 14.0077 9.30236C13.7554 10.151 12.9966 11.0701 12.3923 11.6972L12.2731 11.8213L12.273 11.8213C11.6343 12.4866 10.4796 13.6895 9.67839 14.0126C8.45764 14.5048 7.24862 13.9653 6.19772 13.3317C5.31009 12.7964 4.79843 12.2999 4.21891 11.6728C3.63939 11.0456 2.98323 10.0976 2.60898 9.32589C2.06358 8.20126 1.9713 7.29907 2.51856 6.12629Z" fill="#28ACD4"/>
<path fill-rule="evenodd" clip-rule="evenodd" d="M15.458 6.03628C14.959 4.96707 14.2782 4.22386 13.5571 3.50494C12.8359 2.78601 11.8962 2.01543 10.8977 1.43851C9.4288 0.589859 8.20478 1.02487 7.19248 1.56765C6.18018 2.11046 5.3226 2.76015 4.60142 3.4791C3.88025 4.19804 3.09745 5.26341 2.81501 6.03205C2.29551 7.44581 2.15809 8.38481 2.86542 9.70418C3.36032 10.6274 3.9321 11.2842 4.65326 12.0031C4.76794 12.1174 4.88404 12.2354 5.00206 12.3553C5.62621 12.9895 6.30397 13.6782 7.10823 14.1695C8.23406 14.8573 9.67851 14.6562 11.0273 14.0178C12.0383 13.5393 12.5603 13.0578 13.2815 12.3389C14.0027 11.6199 14.9253 10.5889 15.3543 9.70418C15.9796 8.41493 16.0853 7.3807 15.458 6.03628ZM14.8063 6.12629C14.3711 5.19361 13.8087 4.44948 13.1796 3.82234C12.5505 3.1952 11.7498 2.51971 10.8283 2.11556C9.92221 1.71815 8.32287 1.84823 7.59616 2.22822C6.86948 2.6082 5.96502 3.26846 5.33592 3.89561C4.70683 4.52275 3.90386 5.40505 3.6575 6.07555C3.20437 7.30881 2.95387 8.08042 3.31718 9.30236C3.56954 10.151 4.32833 11.0701 4.93264 11.6972L5.05184 11.8213L5.05186 11.8213C5.69056 12.4866 6.84527 13.6895 7.64651 14.0126C8.86726 14.5048 10.0763 13.9653 11.1272 13.3317C12.0148 12.7964 12.5265 12.2999 13.106 11.6728C13.6855 11.0456 14.3417 10.0976 14.7159 9.32589C15.2613 8.20126 15.3536 7.29907 14.8063 6.12629Z" fill="#28ACD4"/>
<mask id="mask0_1598_12043" style="mask-type:luminance" maskUnits="userSpaceOnUse" x="0" y="0" width="17" height="16">
<path fill-rule="evenodd" clip-rule="evenodd" d="M0.601563 8.02291V7.90579C0.611088 7.2899 0.771175 6.66033 1.1042 5.9588C1.69999 4.70347 2.59467 3.83097 3.45586 2.9868C4.31722 2.14273 5.35787 1.23799 6.55045 0.560703C8.30472 -0.435696 9.76659 0.0750823 10.9756 0.712353C12.1846 1.34959 13.2088 2.11242 14.0701 2.95647C14.9314 3.80053 15.8663 5.05144 16.2037 5.95388C16.8241 7.61369 16.9882 8.71614 16.1434 10.2652C15.5524 11.3491 14.8695 12.1202 14.0081 12.9642C13.1469 13.8083 12.1159 14.6408 10.9756 15.3297C9.37952 16.2941 7.97033 16.1499 6.39568 15.3297C5.14157 14.6763 4.56486 14.2025 3.70347 13.3584C2.84224 12.5144 1.74036 11.3039 1.22793 10.2652C0.834083 9.4669 0.61283 8.75193 0.601562 8.02291H0.601563ZM1.50185 5.97137C0.84814 7.34826 0.958282 8.4074 1.60975 9.72784C2.05675 10.6339 3.01794 11.6899 3.76924 12.4262C4.52062 13.1625 5.02369 13.5758 6.11766 14.1458C7.49132 14.8613 8.72053 14.987 10.1128 14.1458C11.1076 13.5448 12.0069 12.8186 12.7582 12.0823C13.5096 11.346 14.1053 10.6734 14.6209 9.72784C15.3577 8.37661 15.2146 7.4149 14.6734 5.96702C14.3791 5.17984 13.5636 4.08862 12.8122 3.35237C12.0609 2.61603 11.1675 1.95061 10.1128 1.39471C9.05828 0.838834 7.78299 0.393259 6.25268 1.26242C5.21242 1.85328 4.3046 2.64245 3.55322 3.37873C2.802 4.11517 2.02156 4.87626 1.50185 5.97137Z" fill="white"/>
</mask>
<g mask="url(#mask0_1598_12043)">
<path d="M0.601562 16.0022H45.4027V-0.000488281H0.601562V16.0022Z" fill="#28ACD4"/>
</g>
<mask id="mask1_1598_12043" style="mask-type:luminance" maskUnits="userSpaceOnUse" x="1" y="1" width="16" height="14">
<path fill-rule="evenodd" clip-rule="evenodd" d="M1.88257 8.01854V7.92016C1.89134 7.40281 2.03871 6.87397 2.3453 6.28469C2.89378 5.23021 3.71743 4.49731 4.51025 3.78821C5.30322 3.07919 6.26125 2.31921 7.35915 1.75029C8.97414 0.913312 10.3199 1.34237 11.433 1.87767C12.5459 2.41295 13.4889 3.05373 14.2818 3.76273C15.0747 4.47175 15.9354 5.52251 16.246 6.28056C16.8171 7.67479 16.9682 8.60085 16.1905 9.90204C15.6464 10.8125 15.0177 11.4603 14.2247 12.1692C13.4319 12.8783 12.4827 13.5776 11.433 14.1563C9.9636 14.9663 8.6663 14.8452 7.21666 14.1563C6.06213 13.6074 5.53121 13.2094 4.7382 12.5004C3.94535 11.7914 2.93095 10.7745 2.45921 9.90204C2.09663 9.23149 1.89294 8.63092 1.88257 8.01854H1.88257ZM2.70901 6.29397C2.10721 7.45056 2.2086 8.34024 2.80835 9.44941C3.21986 10.2105 4.10474 11.0975 4.79639 11.7161C5.48812 12.3345 5.95124 12.6817 6.95836 13.1605C8.22296 13.7615 9.35458 13.8671 10.6363 13.1605C11.5521 12.6556 12.38 12.0457 13.0717 11.4271C13.7634 10.8087 14.3118 10.2436 14.7864 9.44941C15.4648 8.31437 15.333 7.50654 14.8348 6.29032C14.5639 5.62908 13.8131 4.71247 13.1214 4.09401C12.4298 3.47549 11.6073 2.91654 10.6363 2.44958C9.66551 1.98264 8.49147 1.60836 7.08266 2.33845C6.12499 2.83478 5.28924 3.49768 4.59752 4.11616C3.90594 4.73476 3.18746 5.37408 2.70901 6.29397Z" fill="white"/>
</mask>
<g mask="url(#mask1_1598_12043)">
<path d="M1.88257 14.721H43.1268V1.27881H1.88257V14.721Z" fill="#28ACD4"/>
</g>
<mask id="mask2_1598_12043" style="mask-type:luminance" maskUnits="userSpaceOnUse" x="1" y="0" width="15" height="14">
<path fill-rule="evenodd" clip-rule="evenodd" d="M1.88257 6.70216V6.80054C1.89058 7.31789 2.02525 7.84673 2.30539 8.43601C2.80658 9.49049 3.55919 10.2234 4.28363 10.9325C5.00822 11.6415 5.88363 12.4015 6.88684 12.9704C8.36256 13.8074 9.5923 13.3783 10.6093 12.843C11.6263 12.3077 12.4879 11.667 13.2125 10.958C13.937 10.249 14.7235 9.19819 15.0073 8.44015C15.5291 7.04591 15.6672 6.11985 14.9566 4.81867C14.4594 3.90819 13.8849 3.26045 13.1603 2.55145C12.4358 1.84241 11.5686 1.14315 10.6093 0.564433C9.26669 -0.245597 8.08126 -0.124505 6.75665 0.564433C5.70168 1.11329 5.21654 1.51129 4.49193 2.22031C3.76745 2.92932 2.84054 3.94615 2.40948 4.81867C2.07817 5.48921 1.89205 6.08978 1.88257 6.70216H1.88257ZM2.63589 8.42265C2.08598 7.26606 2.17864 6.37638 2.72666 5.26721C3.10268 4.50608 3.91124 3.61909 4.54325 3.00057C5.17532 2.38209 5.5985 2.03492 6.51877 1.55614C7.67431 0.955144 8.70833 0.849526 9.87956 1.55614C10.7163 2.06097 11.4729 2.67096 12.1049 3.28948C12.7369 3.90792 13.238 4.47298 13.6717 5.26721C14.2916 6.40225 14.1712 7.21008 13.716 8.4263C13.4684 9.08754 12.7824 10.0042 12.1503 10.6226C11.5183 11.2411 10.7667 11.8001 9.87956 12.267C8.99245 12.734 7.91966 13.1083 6.63235 12.3782C5.75726 11.8818 4.9936 11.2189 4.36153 10.6005C3.72959 9.98186 3.07307 9.34254 2.63589 8.42265Z" fill="white"/>
</mask>
<g mask="url(#mask2_1598_12043)">
<path d="M1.88257 -0.000573158H39.5698V13.4417H1.88257V-0.000573158Z" fill="#28ACD4"/>
</g>
<mask id="mask3_1598_12043" style="mask-type:luminance" maskUnits="userSpaceOnUse" x="0" y="0" width="17" height="16">
<path fill-rule="evenodd" clip-rule="evenodd" d="M16.7244 8.02291V7.90579C16.7148 7.2899 16.5548 6.66033 16.2217 5.9588C15.6259 4.70347 14.7313 3.83097 13.8701 2.9868C13.0087 2.14273 11.9681 1.23799 10.7755 0.560703C9.0212 -0.435696 7.55933 0.0750823 6.35032 0.712353C5.14138 1.34959 4.11714 2.11242 3.25583 2.95647C2.39454 3.80053 1.45961 5.05144 1.12225 5.95388C0.501862 7.61369 0.337727 8.71614 1.18249 10.2652C1.77357 11.3491 2.45643 12.1202 3.3178 12.9642C4.17906 13.8083 5.21002 14.6408 6.35032 15.3297C7.94641 16.2941 9.3556 16.1499 10.9303 15.3297C12.1844 14.6763 12.7611 14.2025 13.6225 13.3584C14.4837 12.5144 15.5856 11.3039 16.098 10.2652C16.4918 9.4669 16.7131 8.75193 16.7244 8.02291H16.7244ZM15.8233 5.97137C16.477 7.34826 16.3668 8.4074 15.7154 9.72784C15.2684 10.6339 14.3072 11.6899 13.5559 12.4262C12.8045 13.1625 12.3014 13.5758 11.2075 14.1458C9.8338 14.8613 8.6046 14.987 7.21229 14.1458C6.21754 13.5448 5.31822 12.8186 4.56692 12.0823C3.81557 11.346 3.21986 10.6734 2.70427 9.72784C1.96739 8.37661 2.11054 7.4149 2.65172 5.96702C2.94602 5.17984 3.76152 4.08862 4.5129 3.35237C5.2642 2.61603 6.15763 1.95061 7.21229 1.39471C8.26684 0.838834 9.54214 0.393259 11.0724 1.26242C12.1127 1.85328 13.0205 2.64245 13.7719 3.37873C14.5231 4.11517 15.3036 4.87626 15.8233 5.97137Z" fill="white"/>
</mask>
<g mask="url(#mask3_1598_12043)">
<path d="M16.7244 16.0022H-28.0768V-0.000488281H16.7244V16.0022Z" fill="#28ACD4"/>
</g>
<mask id="mask4_1598_12043" style="mask-type:luminance" maskUnits="userSpaceOnUse" x="2" y="2" width="13" height="12">
<path fill-rule="evenodd" clip-rule="evenodd" d="M13.7078 9.40185C13.2893 10.3195 12.6609 10.9573 12.0559 11.5744C11.4509 12.1914 10.72 12.8527 9.88235 13.3479C8.65015 14.0762 7.62336 13.7029 6.77418 13.237C5.925 12.7712 5.20561 12.2136 4.60063 11.5965C3.99568 10.9795 3.33901 10.0652 3.10209 9.40548C2.6663 8.19212 2.55102 7.38623 3.14437 6.25389C3.55953 5.46154 4.03915 4.89789 4.64412 4.28087C5.24908 3.66384 5.97323 3.05533 6.77418 2.55173C7.89528 1.8468 8.8596 2.0038 9.99104 2.55173C10.8392 2.96246 11.2771 3.37566 11.882 3.99268C12.487 4.60971 13.2609 5.49461 13.6209 6.25389C14.1454 7.36038 14.2341 8.24799 13.7078 9.40185ZM13.1708 9.32713C13.6298 8.32058 13.5524 7.54631 13.0949 6.58109C12.7809 5.91876 12.1058 5.14684 11.5781 4.6086C11.0504 4.07034 10.697 3.76824 9.92853 3.3516C8.96378 2.82858 7.51431 3.08834 7.12241 3.3516C6.48677 3.77864 5.79204 4.32175 5.26432 4.85999C4.73659 5.39823 4.31821 5.88991 3.95603 6.58109C3.43845 7.56888 3.53902 8.27185 3.91916 9.33029C4.12583 9.90575 4.69865 10.7034 5.22638 11.2416C5.75411 11.7798 6.51282 12.3465 7.12241 12.6726C7.73201 12.9988 9.07363 13.1104 9.83374 12.7693C10.6068 12.4224 11.2283 11.814 11.756 11.2758C12.2837 10.7375 12.8056 10.1276 13.1708 9.32713Z" fill="white"/>
</mask>
<g mask="url(#mask4_1598_12043)">
<path d="M0.601074 16.0048H45.4022V0.00219727H0.601074V16.0048Z" fill="#28ACD4"/>
</g>
<mask id="mask5_1598_12043" style="mask-type:luminance" maskUnits="userSpaceOnUse" x="3" y="2" width="12" height="12">
<path fill-rule="evenodd" clip-rule="evenodd" d="M3.61764 9.40185C4.03619 10.3195 4.66457 10.9573 5.26952 11.5744C5.8745 12.1914 6.60542 12.8527 7.44309 13.3479C8.67529 14.0762 9.70208 13.7029 10.5513 13.237C11.4004 12.7712 12.1198 12.2136 12.7248 11.5965C13.3298 10.9795 13.9864 10.0652 14.2234 9.40548C14.6591 8.19212 14.7744 7.38623 14.1811 6.25389C13.7659 5.46154 13.2863 4.89789 12.6813 4.28087C12.0764 3.66384 11.3522 3.05533 10.5513 2.55173C9.43016 1.8468 8.46584 2.0038 7.3344 2.55173C6.48625 2.96246 6.04839 3.37566 5.44343 3.99268C4.83845 4.60971 4.06449 5.49461 3.70458 6.25389C3.18009 7.36038 3.09136 8.24799 3.61764 9.40185ZM4.15323 9.32713C3.69415 8.32058 3.77155 7.54631 4.22908 6.58109C4.54304 5.91876 5.21817 5.14684 5.7459 4.6086C6.27363 4.07034 6.62698 3.76824 7.39545 3.3516C8.36021 2.82858 9.80968 3.08834 10.2016 3.3516C10.8372 3.77864 11.5319 4.32175 12.0597 4.85999C12.5874 5.39823 13.0058 5.88991 13.368 6.58109C13.8855 7.56888 13.785 8.27185 13.4048 9.33029C13.1982 9.90575 12.6253 10.7034 12.0976 11.2416C11.5699 11.7798 10.8112 12.3465 10.2016 12.6726C9.59197 12.9988 8.25036 13.1104 7.49025 12.7693C6.71721 12.4224 6.09571 11.814 5.56799 11.2758C5.04026 10.7375 4.51834 10.1276 4.15323 9.32713Z" fill="white"/>
</mask>
<g mask="url(#mask5_1598_12043)">
<path d="M16.7231 16.0048H-28.078V0.00219727H16.7231V16.0048Z" fill="#28ACD4"/>
</g>
<mask id="mask6_1598_12043" style="mask-type:luminance" maskUnits="userSpaceOnUse" x="2" y="1" width="14" height="15">
<path fill-rule="evenodd" clip-rule="evenodd" d="M14.8625 10.0648C14.3773 11.1067 13.6486 11.8308 12.9472 12.5315C12.2457 13.232 11.3982 13.9829 10.4269 14.545C8.99814 15.372 7.80753 14.9481 6.82286 14.4192C5.83826 13.8903 5.00407 13.2572 4.30259 12.5566C3.60112 11.8561 2.83964 10.8179 2.56492 10.0689C2.05965 8.69136 2.16243 7.82848 2.73413 6.55612C3.1566 5.61587 3.65157 4.95115 4.35306 4.25061C5.05454 3.55007 5.76798 2.95726 6.71607 2.41815C7.96258 1.70937 9.32392 1.68506 10.5529 2.28734C11.5914 2.79624 12.044 3.22288 12.7456 3.92342C13.447 4.62396 14.3444 5.62864 14.7618 6.49072C15.37 7.74704 15.4728 8.75476 14.8625 10.0648ZM14.5411 10.0531C15.0735 8.91035 14.9838 8.0313 14.4532 6.9354C14.0891 6.18337 13.3063 5.30697 12.6944 4.69585C12.0825 4.08477 11.6728 3.74175 10.7818 3.26869C9.66301 2.67488 8.6619 2.57055 7.52795 3.26869C6.71781 3.76749 5.91482 4.3395 5.30291 4.95058C4.691 5.56166 4.27636 6.15067 3.85645 6.9354C3.25632 8.05686 3.37288 8.85504 3.81364 10.0567C4.05333 10.71 4.71751 11.6157 5.32946 12.2268C5.94135 12.8379 6.66899 13.3902 7.52795 13.8515C8.38682 14.3129 9.42547 14.6827 10.6718 13.9613C11.519 13.471 12.2584 12.816 12.8704 12.2049C13.4822 11.5937 14.1178 10.962 14.5411 10.0531Z" fill="white"/>
</mask>
<g mask="url(#mask6_1598_12043)">
<path d="M0.60083 16.0029H45.402V0.000244141H0.60083V16.0029Z" fill="#28ACD4"/>
</g>
<mask id="mask7_1598_12043" style="mask-type:luminance" maskUnits="userSpaceOnUse" x="2" y="0" width="14" height="16">
<path fill-rule="evenodd" clip-rule="evenodd" d="M2.49066 9.73485C3.00847 10.8467 3.78606 11.6194 4.53453 12.3671C5.28316 13.1147 6.18761 13.916 7.2241 14.5158C8.74877 15.3983 10.0193 14.9459 11.0701 14.3815C12.1208 13.8171 13.011 13.1415 13.7596 12.394C14.5081 11.6464 15.3207 10.5385 15.6139 9.73921C16.1531 8.26918 16.0434 7.34837 15.4333 5.99059C14.9825 4.98721 14.4543 4.27786 13.7057 3.53029C12.9571 2.78271 12.1958 2.15011 11.184 1.5748C9.85386 0.818437 8.40112 0.7925 7.08959 1.43521C5.9814 1.97828 5.49839 2.43356 4.74974 3.18114C4.00122 3.92871 3.04356 5.00083 2.5982 5.9208C1.94911 7.26146 1.83941 8.33684 2.49066 9.73485ZM2.83447 9.71659C2.26632 8.4971 2.36204 7.55904 2.92825 6.38956C3.31674 5.58704 4.15213 4.65181 4.8051 3.99966C5.45814 3.34754 5.89536 2.9815 6.84616 2.47668C8.04003 1.843 9.10836 1.73166 10.3184 2.47668C11.183 3.00897 12.0399 3.61938 12.6929 4.27149C13.3458 4.9236 13.7883 5.55215 14.2364 6.38956C14.8769 7.58632 14.7525 8.43808 14.2821 9.72044C14.0263 10.4176 13.3176 11.3841 12.6645 12.0362C12.0116 12.6883 11.2351 13.2777 10.3184 13.77C9.4019 14.2624 8.29352 14.657 6.9635 13.8872C6.05939 13.3639 5.27039 12.6649 4.61735 12.0128C3.96445 11.3606 3.28616 10.6865 2.83447 9.71659Z" fill="white"/>
</mask>
<g mask="url(#mask7_1598_12043)">
<path d="M17.709 16.0651H-30.1V-1.01196H17.709V16.0651Z" fill="#28ACD4"/>
</g>
<path fill-rule="evenodd" clip-rule="evenodd" d="M24.8618 10.4604C24.8618 10.5545 24.8599 10.6351 24.854 10.7004C24.8481 10.7657 24.8383 10.8233 24.8266 10.8694C24.8168 10.9174 24.8011 10.9577 24.7815 10.9923C24.7619 11.0249 24.7325 11.0633 24.6894 11.1055C24.6483 11.1478 24.566 11.2034 24.4465 11.2706C24.325 11.3359 24.1781 11.4012 24.0037 11.4626C23.8294 11.5222 23.6315 11.574 23.4082 11.6143C23.1848 11.6546 22.9419 11.6758 22.6813 11.6758C22.1739 11.6758 21.7155 11.599 21.306 11.4454C20.8965 11.2918 20.5478 11.0614 20.2618 10.7561C19.9738 10.4508 19.7543 10.0707 19.6015 9.61178C19.4487 9.15483 19.3723 8.62299 19.3723 8.01628C19.3723 7.39804 19.4566 6.84893 19.625 6.36894C19.7935 5.88894 20.0286 5.48574 20.3303 5.15935C20.632 4.83295 20.9945 4.58719 21.4177 4.41823C21.8389 4.24927 22.3052 4.16479 22.8145 4.16479C23.0202 4.16479 23.2181 4.18207 23.4101 4.21663C23.6021 4.24927 23.7784 4.29343 23.941 4.34911C24.1037 4.40287 24.2486 4.46623 24.3799 4.53727C24.5092 4.61023 24.6013 4.67167 24.6522 4.72159C24.7032 4.77343 24.7384 4.81567 24.758 4.84831C24.7776 4.88287 24.7933 4.92511 24.8031 4.97695C24.8148 5.03071 24.8246 5.09215 24.8305 5.16319C24.8364 5.23422 24.8383 5.32062 24.8383 5.42623C24.8383 5.53758 24.8344 5.63358 24.8266 5.7123C24.8187 5.79102 24.805 5.85438 24.7874 5.90238C24.7678 5.95038 24.7443 5.98686 24.7188 6.00798C24.6914 6.03102 24.6601 6.04254 24.6267 6.04254C24.5699 6.04254 24.4974 6.0099 24.4093 5.94462C24.3211 5.87934 24.2075 5.80638 24.0684 5.72574C23.9293 5.6451 23.7628 5.57214 23.5688 5.50686C23.3768 5.44158 23.1476 5.40895 22.8792 5.40895C22.5853 5.40895 22.3228 5.46846 22.0916 5.58558C21.8604 5.70462 21.6645 5.87166 21.5019 6.09054C21.3393 6.31134 21.2159 6.57629 21.1316 6.88733C21.0474 7.19644 21.0062 7.54781 21.0062 7.93756C21.0062 8.3638 21.0513 8.73435 21.1414 9.04731C21.2315 9.35834 21.3589 9.61754 21.5254 9.81914C21.69 10.0207 21.8918 10.1724 22.1269 10.2703C22.362 10.3702 22.6265 10.4201 22.9203 10.4201C23.1868 10.4201 23.418 10.3894 23.6139 10.3279C23.8078 10.2665 23.9743 10.1974 24.1134 10.1244C24.2545 10.0495 24.3681 9.98234 24.4583 9.92282C24.5484 9.8633 24.6169 9.83258 24.6679 9.83258C24.7051 9.83258 24.7365 9.84026 24.758 9.85562C24.7815 9.87098 24.8011 9.89978 24.8168 9.94586C24.8305 9.99002 24.8423 10.0534 24.8501 10.134C24.8579 10.2166 24.8618 10.3241 24.8618 10.4604ZM29.9546 10.9417C29.9546 11.0531 29.9506 11.1491 29.9409 11.2259C29.9311 11.3027 29.9154 11.366 29.8978 11.4159C29.8782 11.4678 29.8546 11.5043 29.8253 11.5254C29.7959 11.5484 29.7626 11.5599 29.7253 11.5599H26.3223C26.1969 11.5599 26.0911 11.5234 26.0049 11.4505C25.9187 11.3775 25.8756 11.2585 25.8756 11.0934V4.48095C25.8756 4.44447 25.8874 4.40991 25.9128 4.37919C25.9383 4.35039 25.9795 4.32543 26.0363 4.30623C26.0931 4.28703 26.1715 4.2736 26.2694 4.26208C26.3674 4.25056 26.4888 4.2448 26.6338 4.2448C26.7827 4.2448 26.9061 4.25056 27.0021 4.26208C27.0962 4.2736 27.1745 4.28703 27.2314 4.30623C27.2882 4.32543 27.3293 4.35039 27.3548 4.37919C27.3802 4.40991 27.392 4.44447 27.392 4.48095V10.3388H29.7253C29.7626 10.3388 29.7978 10.3484 29.8253 10.3695C29.8546 10.3907 29.8782 10.4233 29.8978 10.4713C29.9173 10.5174 29.9311 10.5788 29.9409 10.6575C29.9506 10.7343 29.9546 10.8284 29.9546 10.9417ZM32.2495 11.4601C32.2749 11.4294 32.2867 11.3948 32.2867 11.3583V4.48095C32.2867 4.44447 32.2749 4.40991 32.2495 4.37919C32.224 4.35039 32.1829 4.32543 32.126 4.30623C32.0692 4.28703 31.9909 4.2736 31.8968 4.26208C31.8008 4.25056 31.6774 4.2448 31.5285 4.2448C31.3835 4.2448 31.2621 4.25056 31.1661 4.26208C31.0701 4.2736 30.9937 4.28703 30.9349 4.30623C30.8741 4.32543 30.833 4.35039 30.8075 4.37919C30.7821 4.40991 30.7703 4.44447 30.7703 4.48095V11.3583C30.7703 11.3948 30.7821 11.4294 30.8075 11.4601C30.833 11.4889 30.8741 11.5138 30.931 11.533C30.9878 11.5503 31.0661 11.5657 31.1641 11.5772C31.2621 11.5887 31.3835 11.5945 31.5285 11.5945C31.6774 11.5945 31.8008 11.5887 31.8968 11.5772C31.9909 11.5657 32.0692 11.5503 32.126 11.533C32.1829 11.5138 32.224 11.4889 32.2495 11.4601ZM38.969 10.4604C38.969 10.5545 38.967 10.6352 38.9611 10.7004C38.9553 10.7657 38.9455 10.8233 38.9337 10.8694C38.9239 10.9174 38.9082 10.9577 38.8887 10.9923C38.8691 11.0249 38.8397 11.0633 38.7966 11.1056C38.7554 11.1478 38.6731 11.2035 38.5536 11.2707C38.4322 11.336 38.2852 11.4012 38.1109 11.4627C37.9365 11.5222 37.7386 11.574 37.5153 11.6143C37.2919 11.6547 37.049 11.6758 36.7884 11.6758C36.281 11.6758 35.8226 11.599 35.4131 11.4454C35.0037 11.2918 34.6549 11.0614 34.3689 10.7561C34.0809 10.4508 33.8615 10.0707 33.7087 9.61181C33.5559 9.15485 33.4794 8.62302 33.4794 8.0163C33.4794 7.39807 33.5637 6.84896 33.7322 6.36896C33.9007 5.88896 34.1358 5.48577 34.4375 5.15937C34.7392 4.83297 35.1016 4.58722 35.5248 4.41826C35.946 4.2493 36.4123 4.16482 36.9217 4.16482C37.1274 4.16482 37.3253 4.1821 37.5173 4.21666C37.7092 4.2493 37.8856 4.29346 38.0482 4.34914C38.2108 4.4029 38.3558 4.46626 38.487 4.5373C38.6163 4.61026 38.7084 4.67169 38.7593 4.72161C38.8103 4.77345 38.8455 4.81569 38.8651 4.84833C38.8847 4.88289 38.9004 4.92513 38.9102 4.97698C38.922 5.03073 38.9318 5.09217 38.9376 5.16321C38.9435 5.23425 38.9455 5.32065 38.9455 5.42625C38.9455 5.53761 38.9415 5.63361 38.9337 5.71232C38.9259 5.79104 38.9122 5.85441 38.8945 5.9024C38.8749 5.9504 38.8514 5.98689 38.826 6.008C38.7985 6.03104 38.7672 6.04257 38.7339 6.04257C38.6771 6.04257 38.6046 6.00992 38.5164 5.94464C38.4282 5.87937 38.3146 5.8064 38.1755 5.72576C38.0364 5.64513 37.8699 5.57217 37.6759 5.50689C37.4839 5.44161 37.2547 5.40897 36.9863 5.40897C36.6924 5.40897 36.4299 5.46849 36.1987 5.58561C35.9676 5.70464 35.7716 5.87169 35.609 6.09056C35.4464 6.31136 35.323 6.57632 35.2388 6.88735C35.1545 7.19647 35.1134 7.54783 35.1134 7.93758C35.1134 8.36382 35.1584 8.73438 35.2486 9.04734C35.3387 9.35837 35.466 9.61757 35.6325 9.81917C35.7971 10.0208 35.9989 10.1724 36.234 10.2704C36.4691 10.3702 36.7336 10.4201 37.0275 10.4201C37.2939 10.4201 37.5251 10.3894 37.721 10.328C37.915 10.2665 38.0815 10.1974 38.2206 10.1244C38.3616 10.0496 38.4753 9.98237 38.5654 9.92285C38.6555 9.86333 38.7241 9.83261 38.775 9.83261C38.8122 9.83261 38.8436 9.84029 38.8651 9.85565C38.8887 9.87101 38.9082 9.89981 38.9239 9.94589C38.9376 9.99005 38.9494 10.0534 38.9572 10.134C38.9651 10.2166 38.969 10.3241 38.969 10.4604ZM45.3672 11.4505C45.3888 11.4198 45.3986 11.3833 45.3986 11.3411C45.3986 11.3103 45.3907 11.27 45.3731 11.2201C45.3555 11.1702 45.3045 11.0665 45.2203 10.9129L43.0006 7.62205L45.0342 5.00511C45.1301 4.85727 45.1948 4.75167 45.2301 4.68447C45.2634 4.61535 45.281 4.55007 45.281 4.48671C45.281 4.44831 45.2692 4.41567 45.2457 4.38495C45.2242 4.35615 45.183 4.32927 45.1243 4.31007C45.0635 4.28895 44.9852 4.2736 44.8853 4.26208C44.7853 4.25056 44.66 4.2448 44.5071 4.2448C44.3582 4.2448 44.2368 4.24864 44.1408 4.25632C44.0448 4.264 43.9664 4.27744 43.9057 4.29471C43.845 4.31391 43.794 4.33887 43.7568 4.37151C43.7176 4.40415 43.6863 4.44447 43.6588 4.49247L41.4842 7.58748V4.48671C41.4842 4.44447 41.4724 4.40991 41.4489 4.37919C41.4274 4.35039 41.3862 4.32543 41.3294 4.30623C41.2726 4.28703 41.1962 4.2736 41.1002 4.26208C41.0061 4.25056 40.8827 4.2448 40.7358 4.2448C40.5908 4.2448 40.4693 4.25056 40.3714 4.26208C40.2734 4.2736 40.197 4.28703 40.1402 4.30623C40.0834 4.32543 40.0422 4.35039 40.0168 4.37919C39.9913 4.40991 39.9796 4.44447 39.9796 4.48671V11.3468C39.9796 11.3871 39.9913 11.4236 40.0168 11.4543C40.0422 11.4831 40.0834 11.5081 40.1402 11.5292C40.197 11.5503 40.2734 11.5657 40.3714 11.5772C40.4693 11.5887 40.5908 11.5945 40.7358 11.5945C40.8827 11.5945 41.0061 11.5887 41.1002 11.5772C41.1962 11.5657 41.2726 11.5503 41.3294 11.5292C41.3862 11.51 41.4274 11.4831 41.4489 11.4543C41.4724 11.4236 41.4842 11.3871 41.4842 11.3468V7.89084L43.7294 11.3468C43.7568 11.3987 43.794 11.4447 43.841 11.4812C43.8881 11.5196 43.9664 11.5484 44.0761 11.5657C44.1858 11.5849 44.3641 11.5945 44.6129 11.5945C44.7697 11.5945 44.899 11.5887 45.0028 11.5772C45.1066 11.5657 45.187 11.5503 45.2457 11.5292C45.3065 11.5081 45.3457 11.4831 45.3672 11.4505Z" fill="#1A1919"/>
</svg>
