<?xml version="1.0" encoding="utf-8"?>
<!-- Generator: Adobe Illustrator 24.3.0, SVG Export Plug-In . SVG Version: 6.00 Build 0)  -->
<svg version="1.1" id="Layer_1" xmlns="http://www.w3.org/2000/svg" xmlns:xlink="http://www.w3.org/1999/xlink" x="0px" y="0px"
	 viewBox="0 0 160.8 66" style="enable-background:new 0 0 160.8 66;" xml:space="preserve">
<style type="text/css">
	.st0{fill-rule:evenodd;clip-rule:evenodd;fill:url(#SVGID_1_);}
</style>
<path d="M84.5,43.9c-1.4,0-2.7-0.2-3.9-0.6c-1.2-0.4-2.2-1.1-3.1-1.9c-0.9-0.8-1.5-1.9-2-3.2s-0.7-2.8-0.7-4.5v-0.8
	c0-1.6,0.3-3,0.8-4.3c0.5-1.2,1.2-2.3,2.1-3.1c0.9-0.8,1.9-1.5,3.1-1.9s2.5-0.6,3.8-0.6c1.4,0,2.7,0.2,3.7,0.6
	c1.1,0.4,2,0.9,2.7,1.5c0.8,0.7,1.3,1.4,1.8,2.3c0.4,0.9,0.7,1.8,0.8,2.8h-5.1c-0.3-0.9-0.7-1.7-1.3-2.2c-0.6-0.5-1.5-0.8-2.6-0.8
	c-0.7,0-1.3,0.1-1.8,0.3c-0.6,0.2-1.1,0.6-1.5,1c-0.4,0.5-0.8,1.1-1,1.8c-0.3,0.7-0.4,1.5-0.4,2.5v0.8c0,1.1,0.1,2,0.4,2.7
	c0.2,0.8,0.6,1.4,1,1.9s0.9,0.9,1.5,1.1c0.6,0.2,1.2,0.3,1.9,0.3c1,0,1.9-0.3,2.6-0.8s1.2-1.2,1.4-2.2h5.1c-0.1,1.1-0.4,2.1-0.9,3
	s-1.1,1.7-1.9,2.3s-1.7,1.1-2.7,1.5C87,43.7,85.8,43.9,84.5,43.9L84.5,43.9z"/>
<path d="M103.8,43.7c-1.2,0-2.2-0.1-3-0.3s-1.5-0.6-2.1-1.1c-0.5-0.5-0.9-1.3-1.2-2.2c-0.3-0.9-0.4-2-0.4-3.4V17h5v19.1
	c0,0.6,0,1.2,0.1,1.6c0.1,0.4,0.2,0.8,0.4,1c0.2,0.3,0.5,0.5,0.8,0.6c0.4,0.1,0.8,0.2,1.3,0.2c0.3,0,0.6,0,0.8,0
	c0.2,0,0.4,0,0.6-0.1v4.2c-0.2,0-0.3,0.1-0.5,0.1s-0.4,0-0.6,0.1c-0.2,0-0.4,0-0.7,0L103.8,43.7L103.8,43.7z"/>
<path d="M109.8,23.4h5v20h-5V23.4z M112.3,21.3c-0.9,0-1.7-0.3-2.2-0.8s-0.8-1.2-0.8-2s0.3-1.5,0.8-2s1.3-0.8,2.2-0.8
	c0.9,0,1.7,0.3,2.2,0.8s0.8,1.2,0.8,2s-0.3,1.5-0.8,2S113.3,21.3,112.3,21.3z"/>
<path d="M128.6,43.9c-1.4,0-2.7-0.2-3.9-0.6c-1.2-0.4-2.2-1.1-3.1-1.9c-0.9-0.8-1.5-1.9-2-3.2s-0.7-2.8-0.7-4.5v-0.8
	c0-1.6,0.3-3,0.8-4.3c0.5-1.2,1.2-2.3,2.1-3.1c0.9-0.8,1.9-1.5,3.1-1.9s2.5-0.6,3.8-0.6c1.4,0,2.7,0.2,3.7,0.6
	c1.1,0.4,2,0.9,2.7,1.5c0.8,0.7,1.3,1.4,1.8,2.3c0.4,0.9,0.7,1.8,0.8,2.8h-5.1c-0.3-0.9-0.7-1.7-1.3-2.2s-1.5-0.8-2.6-0.8
	c-0.7,0-1.3,0.1-1.8,0.3c-0.6,0.2-1.1,0.6-1.5,1c-0.4,0.5-0.8,1.1-1,1.8c-0.3,0.7-0.4,1.5-0.4,2.5v0.8c0,1.1,0.1,2,0.4,2.7
	c0.2,0.8,0.6,1.4,1,1.9s0.9,0.9,1.5,1.1c0.6,0.2,1.2,0.3,1.9,0.3c1,0,1.9-0.3,2.6-0.8c0.7-0.5,1.2-1.2,1.4-2.2h5.1
	c-0.1,1.1-0.4,2.1-0.9,3s-1.1,1.7-1.9,2.3c-0.8,0.6-1.7,1.1-2.7,1.5C131.1,43.7,129.9,43.9,128.6,43.9L128.6,43.9z"/>
<polygon points="141.1,43.5 141.1,17 146.1,17 146.1,31.6 153.5,23.4 159.2,23.4 151.8,31.8 160,43.5 154.1,43.5 148.4,35.3 
	146.1,37.7 146.1,43.5 "/>
<linearGradient id="SVGID_1_" gradientUnits="userSpaceOnUse" x1="41819.1328" y1="28746.5352" x2="43281.1953" y2="27213.2383" gradientTransform="matrix(2.834878e-02 0 0 2.834878e-02 -1174.7263 -759.5691)">
	<stop  offset="0" style="stop-color:#0073FF"/>
	<stop  offset="1" style="stop-color:#00DEFF"/>
</linearGradient>
<path class="st0" d="M11,11.2C3.7,18.5,0,25.5,0,32.6v0.1c0,7,3.7,14,11,21.4c7.4,7.4,14.4,11,21.4,11h0.1c7,0,14.1-3.7,21.4-11
	c14.7-14.7,14.8-28.1,0-42.9c-7.4-7.4-14.4-11-21.5-11C25.4,0.1,18.4,3.8,11,11.2L11,11.2z M20.8,44.3c-8.1-8.1-8-15.4,0-23.4
	s15.3-8.1,23.4,0s8,15.4,0,23.4c-4,4-7.8,6-11.7,6C28.7,50.3,24.8,48.3,20.8,44.3z"/>
</svg>
