<svg width="40" height="40" viewBox="0 0 40 40" fill="none" xmlns="http://www.w3.org/2000/svg">
    <rect width="40" height="40" rx="8" fill="#F7F8F9"/>
    <path d="M29 13.98C25.67 13.65 22.32 13.48 18.98 13.48C17 13.48 15.02 13.58 13.04 13.78L11 13.98" fill="#677985"/>
    <path d="M29 13.98C25.67 13.65 22.32 13.48 18.98 13.48C17 13.48 15.02 13.58 13.04 13.78L11 13.98" stroke="#677985" stroke-width="1.5" stroke-linecap="round" stroke-linejoin="round"/>
    <path d="M16.5 12.97L16.72 11.66C16.88 10.71 17 10 18.69 10H21.31C23 10 23.13 10.75 23.28 11.67L23.5 12.97" fill="#677985"/>
    <path d="M16.5 12.97L16.72 11.66C16.88 10.71 17 10 18.69 10H21.31C23 10 23.13 10.75 23.28 11.67L23.5 12.97" stroke="#677985" stroke-width="1.5" stroke-linecap="round" stroke-linejoin="round"/>
    <path d="M26.8504 17.1399L26.2004 27.2099C26.0904 28.7799 26.0004 29.9999 23.2104 29.9999H16.7904C14.0004 29.9999 13.9104 28.7799 13.8004 27.2099L13.1504 17.1399" stroke="#677985" stroke-width="1.5" stroke-linecap="round" stroke-linejoin="round"/>
    <path d="M18.3301 24.5H21.6601" stroke="#677985" stroke-width="1.5" stroke-linecap="round" stroke-linejoin="round"/>
    <path d="M17.5 20.5H22.5" stroke="#677985" stroke-width="1.5" stroke-linecap="round" stroke-linejoin="round"/>
</svg>
