<svg width="43" height="42" viewBox="0 0 43 42" fill="none" xmlns="http://www.w3.org/2000/svg">
    <circle cx="21.5" cy="21" r="21" fill="white"/>
    <path fill-rule="evenodd" clip-rule="evenodd" d="M25.9395 12C27.2805 12 28.5705 12.53 29.5195 13.481C30.4695 14.43 31.0005 15.71 31.0005 17.05V24.95C31.0005 27.74 28.7305 30 25.9395 30H16.0605C13.2695 30 11.0005 27.74 11.0005 24.95V17.05C11.0005 14.26 13.2595 12 16.0605 12H25.9395ZM27.5305 18.54L27.6105 18.46C27.8495 18.17 27.8495 17.75 27.5995 17.46C27.4605 17.311 27.2695 17.22 27.0705 17.2C26.8605 17.189 26.6605 17.26 26.5095 17.4L22.0005 21C21.4205 21.481 20.5895 21.481 20.0005 21L15.5005 17.4C15.1895 17.17 14.7595 17.2 14.5005 17.47C14.2305 17.74 14.2005 18.17 14.4295 18.47L14.5605 18.6L19.1105 22.15C19.6705 22.59 20.3495 22.83 21.0605 22.83C21.7695 22.83 22.4605 22.59 23.0195 22.15L27.5305 18.54Z" fill="#297AFF"/>
</svg>
