<svg width="146" height="21" viewBox="0 0 146 21" fill="none" xmlns="http://www.w3.org/2000/svg">
<path d="M4.606 5.21074C5.51133 5.21074 6.26267 5.51407 6.86 6.12074C7.46667 6.71807 7.77 7.46474 7.77 8.36074C7.77 9.24741 7.46667 9.99408 6.86 10.6007C6.26267 11.2074 5.51133 11.5107 4.606 11.5107H2.352V15.0107H1.05V5.21074H4.606ZM4.606 10.2927C5.14733 10.2927 5.59533 10.1107 5.95 9.74674C6.30467 9.37341 6.482 8.91141 6.482 8.36074C6.482 7.80074 6.30467 7.33874 5.95 6.97474C5.59533 6.61074 5.14733 6.42874 4.606 6.42874H2.352V10.2927H4.606ZM14.5566 14.1287C13.8379 14.8381 12.9653 15.1927 11.9386 15.1927C10.9119 15.1927 10.0393 14.8381 9.32061 14.1287C8.61128 13.4194 8.25661 12.5467 8.25661 11.5107C8.25661 10.4747 8.61128 9.60208 9.32061 8.89274C10.0393 8.18341 10.9119 7.82874 11.9386 7.82874C12.9653 7.82874 13.8379 8.18341 14.5566 8.89274C15.2753 9.60208 15.6346 10.4747 15.6346 11.5107C15.6346 12.5467 15.2753 13.4194 14.5566 14.1287ZM11.9386 14.0027C12.6386 14.0027 13.2266 13.7647 13.7026 13.2887C14.1786 12.8127 14.4166 12.2201 14.4166 11.5107C14.4166 10.8014 14.1786 10.2087 13.7026 9.73274C13.2266 9.25674 12.6386 9.01874 11.9386 9.01874C11.2479 9.01874 10.6646 9.25674 10.1886 9.73274C9.71261 10.2087 9.47461 10.8014 9.47461 11.5107C9.47461 12.2201 9.71261 12.8127 10.1886 13.2887C10.6646 13.7647 11.2479 14.0027 11.9386 14.0027ZM25.043 8.01074H26.317L24.147 15.0107H22.901L21.263 9.83074L19.625 15.0107H18.379L16.209 8.01074H17.483L19.023 13.3307L20.675 8.01074H21.851L23.503 13.3447L25.043 8.01074ZM28.151 12.0707C28.2724 12.6961 28.557 13.1814 29.005 13.5267C29.4624 13.8721 30.0224 14.0447 30.685 14.0447C31.609 14.0447 32.281 13.7041 32.701 13.0227L33.737 13.6107C33.0557 14.6654 32.029 15.1927 30.657 15.1927C29.5464 15.1927 28.641 14.8474 27.941 14.1567C27.2504 13.4567 26.905 12.5747 26.905 11.5107C26.905 10.4561 27.2457 9.57874 27.927 8.87874C28.6084 8.17874 29.4904 7.82874 30.573 7.82874C31.5997 7.82874 32.435 8.19274 33.079 8.92074C33.7324 9.63941 34.059 10.5074 34.059 11.5247C34.059 11.7021 34.045 11.8841 34.017 12.0707H28.151ZM30.573 8.97674C29.9197 8.97674 29.3784 9.16341 28.949 9.53674C28.5197 9.90074 28.2537 10.3907 28.151 11.0067H32.827C32.7244 10.3441 32.463 9.84008 32.043 9.49474C31.623 9.14941 31.133 8.97674 30.573 8.97674ZM36.6772 9.18674C37.0785 8.31874 37.8065 7.88474 38.8612 7.88474V9.15874C38.2638 9.13074 37.7505 9.28941 37.3212 9.63474C36.8918 9.98008 36.6772 10.5354 36.6772 11.3007V15.0107H35.4592V8.01074H36.6772V9.18674ZM40.5241 12.0707C40.6454 12.6961 40.9301 13.1814 41.3781 13.5267C41.8354 13.8721 42.3954 14.0447 43.0581 14.0447C43.9821 14.0447 44.6541 13.7041 45.0741 13.0227L46.1101 13.6107C45.4288 14.6654 44.4021 15.1927 43.0301 15.1927C41.9194 15.1927 41.0141 14.8474 40.3141 14.1567C39.6234 13.4567 39.2781 12.5747 39.2781 11.5107C39.2781 10.4561 39.6188 9.57874 40.3001 8.87874C40.9814 8.17874 41.8634 7.82874 42.9461 7.82874C43.9728 7.82874 44.8081 8.19274 45.4521 8.92074C46.1054 9.63941 46.4321 10.5074 46.4321 11.5247C46.4321 11.7021 46.4181 11.8841 46.3901 12.0707H40.5241ZM42.9461 8.97674C42.2928 8.97674 41.7514 9.16341 41.3221 9.53674C40.8928 9.90074 40.6268 10.3907 40.5241 11.0067H45.2001C45.0974 10.3441 44.8361 9.84008 44.4161 9.49474C43.9961 9.14941 43.5061 8.97674 42.9461 8.97674ZM53.6145 5.21074H54.8325V15.0107H53.6145V13.8067C53.0079 14.7307 52.1259 15.1927 50.9685 15.1927C49.9885 15.1927 49.1532 14.8381 48.4625 14.1287C47.7719 13.4101 47.4265 12.5374 47.4265 11.5107C47.4265 10.4841 47.7719 9.61608 48.4625 8.90674C49.1532 8.18808 49.9885 7.82874 50.9685 7.82874C52.1259 7.82874 53.0079 8.29074 53.6145 9.21474V5.21074ZM51.1225 14.0167C51.8319 14.0167 52.4245 13.7787 52.9005 13.3027C53.3765 12.8174 53.6145 12.2201 53.6145 11.5107C53.6145 10.8014 53.3765 10.2087 52.9005 9.73274C52.4245 9.24741 51.8319 9.00474 51.1225 9.00474C50.4225 9.00474 49.8345 9.24741 49.3585 9.73274C48.8825 10.2087 48.6445 10.8014 48.6445 11.5107C48.6445 12.2201 48.8825 12.8174 49.3585 13.3027C49.8345 13.7787 50.4225 14.0167 51.1225 14.0167ZM64.0419 7.82874C65.0219 7.82874 65.8572 8.18808 66.5479 8.90674C67.2386 9.61608 67.5839 10.4841 67.5839 11.5107C67.5839 12.5374 67.2386 13.4101 66.5479 14.1287C65.8572 14.8381 65.0219 15.1927 64.0419 15.1927C62.8846 15.1927 62.0026 14.7307 61.3959 13.8067V15.0107H60.1779V5.21074H61.3959V9.21474C62.0026 8.29074 62.8846 7.82874 64.0419 7.82874ZM63.8879 14.0167C64.5879 14.0167 65.1759 13.7787 65.6519 13.3027C66.1279 12.8174 66.3659 12.2201 66.3659 11.5107C66.3659 10.8014 66.1279 10.2087 65.6519 9.73274C65.1759 9.24741 64.5879 9.00474 63.8879 9.00474C63.1786 9.00474 62.5859 9.24741 62.1099 9.73274C61.6339 10.2087 61.3959 10.8014 61.3959 11.5107C61.3959 12.2201 61.6339 12.8174 62.1099 13.3027C62.5859 13.7787 63.1786 14.0167 63.8879 14.0167ZM73.6498 8.01074H74.9518L72.0958 15.4447C71.7972 16.2381 71.3772 16.8401 70.8358 17.2507C70.3038 17.6707 69.6878 17.8574 68.9878 17.8107V16.6767C69.8465 16.7421 70.4765 16.2661 70.8778 15.2487L71.0038 14.9827L67.9518 8.01074H69.2538L71.6338 13.4987L73.6498 8.01074Z" fill="white"/>
<path d="M86 2.40622L88.0553 1.20311L90.1107 0L90.156 2.03192C90.181 3.14935 90.1691 4.14758 90.1296 4.24994C90.0696 4.40541 87.6401 5.88976 86.3627 6.55139L86 6.7391V4.57274V2.40622Z" fill="white"/>
<path d="M86.0058 8.41245L87.9776 7.25763C89.0621 6.62247 90.0038 6.09896 90.0704 6.09447C90.137 6.08982 90.1908 8.66706 90.1902 11.8217L90.189 17.5573L88.0945 18.7893L86 20.0214L86.0029 14.2169L86.0058 8.41245Z" fill="white"/>
<path d="M91.2231 2.40621L93.2785 1.20311L95.3338 0L95.3791 2.03192C95.4041 3.14935 95.3922 4.14758 95.3527 4.24994C95.2927 4.40541 92.8632 5.88976 91.5859 6.55139L91.2231 6.7391V4.57274V2.40621Z" fill="white"/>
<path d="M91.2289 8.41245L93.2008 7.25763C94.2852 6.62247 95.227 6.09896 95.2935 6.09447C95.3601 6.08982 95.414 8.66706 95.4133 11.8217L95.4122 17.5573L93.3177 18.7893L91.2231 20.0214L91.226 14.2169L91.2289 8.41245Z" fill="white"/>
<path fill-rule="evenodd" clip-rule="evenodd" d="M101.669 6.01263V10.2845H102.959H104.248V6.01263V1.74072H102.959H101.669V6.01263ZM106.505 6.01263V10.2845H107.791H109.076L109.12 7.85261L109.165 5.42052L110.278 6.80478C110.89 7.56599 111.444 8.18888 111.51 8.18888C111.576 8.18888 112.127 7.57227 112.735 6.81881C113.343 6.06518 113.894 5.44857 113.961 5.44857C114.027 5.44841 114.082 6.53654 114.082 7.86647V10.2845H115.291H116.5V6.01263V1.74072L115.331 1.74927L114.162 1.75781L113.195 2.96233C112.663 3.62471 112.076 4.35077 111.891 4.57565L111.555 4.98463L110.229 3.36276L108.903 1.74072H107.704H106.505V6.01263ZM118.918 6.01263V10.2845H120.207H121.497V8.69167V7.09898L122.995 7.03337C125.378 6.92923 126.253 6.22219 126.253 4.40059C126.253 3.17092 125.938 2.64443 124.879 2.10343C124.229 1.77119 123.949 1.74072 121.543 1.74072H118.918V6.01263ZM127.945 6.01263V10.2845H131.169H134.393V9.47851V8.67249H132.459H130.524V7.70527V6.73804H132.298H134.071V5.93202V5.126H132.298H130.524V4.23938V3.35276H132.378H134.232V2.54674V1.74072H131.089H127.945V6.01263ZM135.58 1.86662C135.623 1.93578 136.386 2.85867 137.275 3.91746C138.645 5.54884 138.861 5.88012 138.687 6.08871C138.373 6.46593 135.647 9.85443 135.474 10.083C135.354 10.241 135.67 10.2845 136.936 10.2845H138.55L139.477 9.0755C139.986 8.41053 140.448 7.86647 140.505 7.86647C140.561 7.86647 141.061 8.41053 141.616 9.0755L142.625 10.2845H144.241C145.13 10.2845 145.819 10.2221 145.772 10.1459C145.725 10.0696 144.923 9.10854 143.989 8.00994C143.056 6.9115 142.292 5.93992 142.292 5.85078C142.292 5.76163 143.018 4.80037 143.905 3.71466L145.517 1.74072H143.853H142.189L141.345 2.87334L140.5 4.0058L139.614 2.87334L138.727 1.74072H137.115C136.228 1.74072 135.538 1.79731 135.58 1.86662ZM123.431 3.67517C123.609 3.85249 123.754 4.17893 123.754 4.40059C123.754 5.06668 123.225 5.44841 122.303 5.44841H121.497V4.40059V3.35276H122.303C122.894 3.35276 123.195 3.43868 123.431 3.67517ZM111.068 12.6948C110.471 12.9512 110.146 13.6003 110.317 14.196C110.429 14.588 110.677 14.83 111.346 15.2041C112.417 15.8019 112.507 16.1704 111.583 16.1641C111.228 16.1617 110.775 16.1025 110.575 16.0324C110.252 15.9188 110.213 15.957 110.213 16.3837C110.213 16.7757 110.305 16.8944 110.72 17.0393C111 17.1367 111.549 17.2163 111.942 17.2163C112.516 17.2163 112.748 17.1239 113.127 16.7451C113.952 15.9201 113.721 15.2266 112.382 14.5032C111.385 13.9647 111.32 13.585 112.228 13.5995C112.582 13.6052 112.999 13.6672 113.155 13.7377C113.382 13.8407 113.437 13.7876 113.437 13.4649C113.437 13.2447 113.336 12.9805 113.212 12.878C112.909 12.6265 111.507 12.5067 111.068 12.6948ZM131.33 14.9149V17.2163H131.975H132.62V16.0073C132.62 15.3423 132.686 14.7982 132.767 14.7982C132.848 14.7982 133.4 15.3423 133.996 16.0073C134.99 17.118 135.129 17.2163 135.703 17.2163H136.328V14.9594V12.7026H135.683H135.038V13.831C135.038 14.5521 134.973 14.9594 134.859 14.9594C134.76 14.9594 134.216 14.4592 133.65 13.8479C132.76 12.886 132.534 12.7282 131.976 12.675L131.33 12.6134V14.9149ZM138.893 12.6866C137.748 13.058 137.295 13.6935 137.296 14.9267C137.297 16.389 138.218 17.2163 139.845 17.2163C141.055 17.2163 141.648 16.955 141.648 16.4214C141.648 15.8095 141.544 15.7576 140.88 16.0353C139.781 16.4944 138.585 15.8831 138.585 14.8624C138.585 13.8966 139.838 13.2869 140.905 13.733L141.486 13.9758V13.437C141.486 13.094 141.393 12.8627 141.231 12.8003C140.761 12.62 139.315 12.5498 138.893 12.6866ZM101.669 14.9594V17.2163H102.314H102.959V14.9594V12.7026H102.314H101.669V14.9594ZM104.248 14.9594V17.2163H104.893H105.538L105.542 15.8864L105.545 14.5564L106.791 15.892C107.929 17.1125 108.089 17.2273 108.641 17.2219L109.246 17.2163V14.9594V12.7026H108.52H107.795V13.831C107.795 14.4516 107.765 14.9594 107.729 14.9594C107.693 14.9594 107.174 14.4516 106.574 13.831C105.598 12.8193 105.421 12.7026 104.867 12.7026H104.248V14.9594ZM114.568 14.1937C114.57 15.8872 114.724 16.3124 115.535 16.8629C116.012 17.1868 116.249 17.2352 117.102 17.1826C118.873 17.0735 119.376 16.3813 119.392 14.0325L119.401 12.7026H118.777H118.152L118.08 14.0683C117.997 15.6568 117.742 16.0879 116.887 16.0879C116.081 16.0879 115.855 15.6391 115.855 14.0369V12.7026H115.21H114.565L114.568 14.1937ZM120.53 14.9594V17.2163H121.175H121.819V16.3297C121.819 15.4904 121.841 15.4431 122.224 15.4431C122.555 15.4431 122.709 15.6059 123.064 16.3297C123.49 17.199 123.512 17.2163 124.19 17.2163C124.571 17.2163 124.882 17.1771 124.882 17.1292C124.882 16.9647 124.2 15.6845 123.976 15.4289C123.782 15.2077 123.795 15.1332 124.075 14.88C124.538 14.461 124.503 13.5984 124.003 13.0983C123.638 12.7334 123.487 12.7026 122.068 12.7026H120.53V14.9594ZM126.849 13.1459C126.761 13.3898 126.322 14.4054 125.874 15.4028L125.059 17.2163H125.757C126.381 17.2163 126.477 17.1647 126.656 16.7327C126.848 16.2683 126.896 16.2491 127.865 16.2491C128.833 16.2491 128.881 16.2683 129.074 16.7327C129.252 17.1633 129.349 17.2163 129.962 17.2163H130.651L129.662 14.9594L128.673 12.7026H127.841C127.08 12.7026 126.996 12.7403 126.849 13.1459ZM142.615 14.9594V17.2163H144.307H146V16.7327V16.2491H144.952H143.904V15.7655V15.2818H144.872H145.839V14.7982V14.3146H144.872C143.947 14.3146 143.904 14.2967 143.904 13.9116C143.904 13.5231 143.942 13.5086 144.952 13.5086C145.962 13.5086 146 13.4941 146 13.1056V12.7026H144.307H142.615V14.9594ZM123.031 13.8387C123.173 14.2867 122.845 14.637 122.283 14.637C121.861 14.637 121.819 14.5869 121.819 14.0728C121.819 13.5376 121.848 13.5086 122.373 13.5086C122.789 13.5086 122.952 13.5905 123.031 13.8387ZM128.252 14.6806L128.579 15.4431H127.868H127.157L127.494 14.6332C127.679 14.1878 127.852 13.8447 127.877 13.8708C127.904 13.8969 128.072 14.2613 128.252 14.6806Z" fill="white"/>
</svg>
