<svg width="43" height="42" viewBox="0 0 43 42" fill="none" xmlns="http://www.w3.org/2000/svg">
    <circle cx="21.5" cy="21" r="21" fill="white"/>
    <path fill-rule="evenodd" clip-rule="evenodd" d="M28.7771 13.43C29.0243 13.326 29.2947 13.2901 29.5604 13.3261C29.8261 13.3621 30.0773 13.4686 30.2878 13.6347C30.4984 13.8007 30.6606 14.0201 30.7575 14.27C30.8545 14.52 30.8827 14.7914 30.8391 15.056L28.5711 28.813C28.3511 30.14 26.8951 30.901 25.6781 30.24C24.6601 29.687 23.1481 28.835 21.7881 27.946C21.1081 27.501 19.0251 26.076 19.2811 25.062C19.5011 24.195 23.0011 20.937 25.0011 19C25.7861 18.239 25.4281 17.8 24.5011 18.5C22.1981 20.238 18.5031 22.881 17.2811 23.625C16.2031 24.281 15.6411 24.393 14.9691 24.281C13.7431 24.077 12.6061 23.761 11.6781 23.376C10.4241 22.856 10.4851 21.132 11.6771 20.63L28.7771 13.43Z" fill="#297AFF"/>
</svg>
