<svg width="43" height="42" viewBox="0 0 43 42" fill="none" xmlns="http://www.w3.org/2000/svg">
    <circle cx="21.5" cy="21" r="21" fill="white"/>
    <path fill-rule="evenodd" clip-rule="evenodd" d="M13.6038 19.75H16.0362C16.1475 17.8175 16.515 16.0375 17.0825 14.6025C16.1688 15.1624 15.3855 15.9115 14.7855 16.7994C14.1854 17.6873 13.7825 18.6934 13.6038 19.75ZM21 11C18.3478 11 15.8043 12.0536 13.9289 13.9289C12.0536 15.8043 11 18.3478 11 21C11 23.6522 12.0536 26.1957 13.9289 28.0711C15.8043 29.9464 18.3478 31 21 31C23.6522 31 26.1957 29.9464 28.0711 28.0711C29.9464 26.1957 31 23.6522 31 21C31 18.3478 29.9464 15.8043 28.0711 13.9289C26.1957 12.0536 23.6522 11 21 11ZM21 13.5C20.905 13.5 20.71 13.54 20.4187 13.8275C20.1213 14.12 19.7975 14.6062 19.4975 15.305C19.0113 16.4387 18.6562 17.9825 18.54 19.75H23.46C23.3438 17.9825 22.9887 16.4387 22.5025 15.305C22.2025 14.605 21.8775 14.12 21.5813 13.8275C21.29 13.54 21.095 13.5 21 13.5ZM25.9637 19.75C25.8525 17.8175 25.485 16.0375 24.9175 14.6025C25.8312 15.1624 26.6145 15.9115 27.2145 16.7994C27.8146 17.6873 28.2175 18.6934 28.3962 19.75H25.9637ZM23.46 22.25H18.54C18.6562 24.0175 19.0113 25.5612 19.4975 26.695C19.7975 27.395 20.1225 27.88 20.4187 28.1725C20.71 28.46 20.905 28.5 21 28.5C21.095 28.5 21.29 28.46 21.5813 28.1725C21.8787 27.88 22.2037 27.3937 22.5025 26.695C22.9887 25.5612 23.3438 24.0175 23.46 22.25ZM24.9175 27.3975C25.485 25.9637 25.8525 24.1825 25.9637 22.25H28.3962C28.2175 23.3066 27.8146 24.3127 27.2145 25.2006C26.6145 26.0885 25.8312 26.8376 24.9175 27.3975ZM17.0825 27.3975C16.515 25.9625 16.1475 24.1825 16.0375 22.25H13.6038C13.7825 23.3066 14.1854 24.3127 14.7855 25.2006C15.3855 26.0885 16.1688 26.8376 17.0825 27.3975Z" fill="#297AFF"/>
</svg>
